<svg xmlns="http://www.w3.org/2000/svg" viewBox="0 0 200 200" role="img" aria-label="Bob Esponja">
  <rect width="200" height="200" rx="28" fill="#ffe66d"/>
  <circle cx="100" cy="100" r="66" fill="#f6e05e"/>
  <circle cx="74" cy="82" r="12" fill="#fff"/>
  <circle cx="126" cy="82" r="12" fill="#fff"/>
  <circle cx="74" cy="82" r="6" fill="#1f2937"/>
  <circle cx="126" cy="82" r="6" fill="#1f2937"/>
  <path d="M66 116 Q100 148 134 116" fill="none" stroke="#e53e3e" stroke-width="6" stroke-linecap="round"/>
  <path d="M52 55 Q70 28 100 35 Q130 28 148 55" fill="none" stroke="#d97706" stroke-width="8" stroke-linecap="round"/>
  <path d="M48 66 C58 36 84 30 100 42" fill="none" stroke="#f59e0b" stroke-width="8" stroke-linecap="round"/>
  <path d="M152 66 C142 36 116 30 100 42" fill="none" stroke="#f59e0b" stroke-width="8" stroke-linecap="round"/>
  <rect x="58" y="126" width="84" height="16" rx="8" fill="#ffb703"/>
  <path d="M53 134 C72 154 128 154 147 134" fill="none" stroke="#fb7185" stroke-width="5" stroke-linecap="round"/>
</svg>
